# xmcd
#
# Track frame offsets: 
#        150
#        24123
#        38694
#        61946
#        84887
#        101417
#        116002
#        129920
#        152548
#        167211
#        203003
#        246159
#
# Disc length: 3957 seconds
#
# Revision: 2
# Processed by: cddbd v1.5.2PL0 Copyright (c) Steve Scherf et al.
# Submitted via: ExactAudioCopy v0.99pb5
#
DISCID=850f730c
DTITLE=Graham Bond - Solid Bond
DYEAR=2009
DGENRE=Jazz, Blues Rock
TTITLE0=Green Onions
TTITLE1=Springtime In The City
TTITLE2=Can't Stand It
TTITLE3=Only Sixteen
TTITLE4=Last Night
TTITLE5=Long Legged Baby
TTITLE6=Walkin' In The Park
TTITLE7=It's Not Goodbye
TTITLE8=Neighbour Neighbour
TTITLE9=Ho Ho Country Kicking Blues
TTITLE10=The Grass Is Greener
TTITLE11=Doxy
EXTD=YEAR: 1970
EXTT0=
EXTT1=
EXTT2=
EXTT3=
EXTT4=
EXTT5=
EXTT6=
EXTT7=
EXTT8=
EXTT9=
EXTT10=
EXTT11=
PLAYORDER=
